<svg width="711" height="131" viewBox="0 0 711 131" fill="none" xmlns="http://www.w3.org/2000/svg">
<path fill-rule="evenodd" clip-rule="evenodd" d="M98.3824 125.898H0V101.898H98.3824V125.898Z" fill="#FBFAF8"/>
<path fill-rule="evenodd" clip-rule="evenodd" d="M64.1798 43.1593C69.3343 37.2232 72.9513 32.0033 75.2833 27.4922L96.6031 38.5133C93.1538 45.1858 88.306 51.9783 82.3118 58.883C75.697 66.5353 67.1024 72.8131 56.9331 77.9132L56.8345 77.9627L56.7351 78.0103C45.5427 83.3684 32.1639 85.7127 17.1637 85.7127H0V61.7127H17.1637C29.7826 61.7127 39.3007 59.7246 46.2758 56.4089C54.2257 52.4086 60.0537 47.9347 64.1606 43.1815L64.1702 43.1704L64.1798 43.1593Z" fill="#FBFAF8"/>
<path d="M188.59 130.383C179.593 130.383 171.63 128.496 164.701 124.722C157.893 120.827 152.543 115.409 148.653 108.47C144.884 101.409 143 93.1916 143 83.8177V81.6264C143 72.1307 144.884 63.9133 148.653 56.9741C152.422 50.035 157.71 44.6784 164.518 40.9045C171.326 37.0088 179.168 35.061 188.043 35.061C196.796 35.061 204.455 37.0088 211.02 40.9045C217.585 44.6784 222.691 50.035 226.338 56.9741C229.985 63.9133 231.809 72.009 231.809 81.2612V88.7481H164.154C164.397 95.809 166.889 101.47 171.63 105.731C176.372 109.992 182.207 112.122 189.137 112.122C195.945 112.122 200.99 110.661 204.272 107.74C207.555 104.696 210.047 101.287 211.749 97.5134L229.073 106.461C227.371 109.748 224.879 113.279 221.596 117.053C218.436 120.705 214.181 123.87 208.831 126.548C203.482 129.105 196.735 130.383 188.59 130.383ZM164.336 72.8611H210.473C209.986 66.8959 207.676 62.1481 203.543 58.6176C199.531 55.0872 194.304 53.3219 187.86 53.3219C181.174 53.3219 175.825 55.0872 171.813 58.6176C167.801 62.1481 165.309 66.8959 164.336 72.8611Z" fill="#FBFAF8"/>
<path d="M259.423 127.827L229.881 37.6175H252.129L274.376 112.487L275.926 117.815L277.477 112.487L299.907 37.6175H322.154L292.612 127.827H259.423Z" fill="#FBFAF8"/>
<path d="M367.976 130.383C358.98 130.383 350.895 128.557 343.722 124.905C336.671 121.131 331.079 115.835 326.946 109.018C322.934 102.079 320.928 93.8003 320.928 84.1829V81.2612C320.928 71.6437 322.934 63.3654 326.946 56.4263C331.079 49.4871 336.671 44.1915 343.722 40.5393C350.895 36.8871 358.98 35.061 367.976 35.061C376.973 35.061 384.996 36.8871 392.047 40.5393C399.099 44.1915 404.63 49.4871 408.642 56.4263C412.776 63.3654 414.842 71.6437 414.842 81.2612V84.1829C414.842 93.8003 412.776 102.079 408.642 109.018C404.63 115.835 399.099 121.131 392.047 124.905C384.996 128.557 376.973 130.383 367.976 130.383ZM367.976 111.757C375.635 111.757 381.896 109.322 386.759 104.453C391.622 99.4612 394.053 92.5221 394.053 83.6351V81.809C394.053 72.922 391.622 66.0437 386.759 61.1741C381.896 56.1828 375.635 53.6872 367.976 53.6872C360.317 53.6872 354.056 56.1828 349.193 61.1741C344.33 66.0437 341.899 72.922 341.899 81.809V83.6351C341.899 92.5221 344.33 99.4612 349.193 104.453C354.056 109.322 360.317 111.757 367.976 111.757Z" fill="#FBFAF8"/>
<path d="M426.2 127.827V0H447.171V127.827H426.2Z" fill="#FBFAF8"/>
<path d="M498.272 129.287C491.343 129.287 484.204 127.766 478.854 124.722C473.505 121.557 469.372 117.174 466.454 111.574C463.536 105.853 462.077 99.2178 462.077 91.6699V37.6175H482.866V90.0264C482.866 97.3308 484.629 102.748 488.155 106.279C491.802 109.809 496.908 111.574 503.473 111.574C510.889 111.574 516.724 109.14 520.979 104.27C525.356 99.4004 527.544 92.4003 527.544 83.2699V37.6175H548.333V127.827H527.909V115.227C526.328 118.513 523.501 121.319 519.156 124.722C515.022 127.766 509.761 129.287 498.272 129.287Z" fill="#FBFAF8"/>
<path d="M591.625 127.827C585.79 127.827 581.109 126.122 577.584 122.713C574.18 119.183 572.478 114.435 572.478 108.47V54.9654H555.933V37.6175H572.478V8.58264H593.449V37.6175H611.424V54.9654H593.449V110.479H616.608V127.827H591.625Z" fill="#FBFAF8"/>
<path d="M667.751 130.383C658.755 130.383 650.792 128.496 643.862 124.722C637.054 120.827 631.705 115.409 627.815 108.47C624.046 101.409 622.162 93.1916 622.162 83.8177V81.6264C622.162 72.1307 624.046 63.9133 627.815 56.9741C631.583 50.035 636.872 44.6784 643.68 40.9045C650.488 37.0088 658.329 35.061 667.204 35.061C675.957 35.061 683.616 37.0088 690.181 40.9045C696.746 44.6784 701.852 50.035 705.499 56.9741C709.147 63.9133 710.97 72.009 710.97 81.2612V88.7481H643.315C643.558 95.809 646.051 101.47 650.792 105.731C655.533 109.992 661.369 112.122 668.298 112.122C675.106 112.122 680.152 110.661 683.434 107.74C686.717 104.696 689.209 101.287 690.911 97.5134L708.235 106.461C706.533 109.748 704.041 113.279 700.758 117.053C697.597 120.705 693.342 123.87 687.993 126.548C682.644 129.105 675.897 130.383 667.751 130.383ZM643.498 72.8611H689.634C689.148 66.8959 686.838 62.1481 682.705 58.6176C678.693 55.0872 673.465 53.3219 667.022 53.3219C660.335 53.3219 654.986 55.0872 650.974 58.6176C646.962 62.1481 644.47 66.8959 643.498 72.8611Z" fill="#FBFAF8"/>
</svg>
